<svg xmlns="http://www.w3.org/2000/svg" xmlns:xlink="http://www.w3.org/1999/xlink" width="2191pt" height="758pt" viewBox="0 0 2190.6 757.6"><g id="graph0" class="graph" transform="scale(1 1) rotate(0) translate(28.8 728.8)"><title>Gemcutter</title><polygon fill="#fff" stroke="transparent" points="-28.8 28.8 -28.8 -728.8 2161.8 -728.8 2161.8 28.8 -28.8 28.8"/><text x="1066.5" y="-685.6" fill="#000" font-family="Arial BoldMT" font-size="13" text-anchor="middle">RubyGems.org domain model</text><g id="node1" class="node"><title>m_Announcement</title><path fill="none" stroke="#000" d="M12,-517C12,-517 276,-517 276,-517 282,-517 288,-523 288,-529 288,-529 288,-541 288,-541 288,-547 282,-553 276,-553 276,-553 12,-553 12,-553 6,-553 0,-547 0,-541 0,-541 0,-529 0,-529 0,-523 6,-517 12,-517"/><text x="33.001" y="-531.2" fill="#000" font-family="Arial BoldMT" font-size="11" text-anchor="start">Announcement</text><polyline fill="none" stroke="#000" points="144 -517 144 -553"/><text x="151" y="-533" fill="#000" font-family="ArialMT" font-size="10" text-anchor="start">body</text><text x="175.463" y="-533" fill="#999" font-family="Arial ItalicMT" font-size="10" text-anchor="start">text</text></g><g id="node2" class="node"><title>m_Delayed::Backend::ActiveRecord::Job</title><path fill="none" stroke="#000" d="M329,-471.5C329,-471.5 643,-471.5 643,-471.5 649,-471.5 655,-477.5 655,-483.5 655,-483.5 655,-586.5 655,-586.5 655,-592.5 649,-598.5 643,-598.5 643,-598.5 329,-598.5 329,-598.5 323,-598.5 317,-592.5 317,-586.5 317,-586.5 317,-483.5 317,-483.5 317,-477.5 323,-471.5 329,-471.5"/><text x="321.674" y="-531.2" fill="#000" font-family="Arial BoldMT" font-size="11" text-anchor="start">Delayed::Backend::ActiveRecord::Job</text><polyline fill="none" stroke="#000" points="511 -471.5 511 -598.5"/><text x="518" y="-585" fill="#000" font-family="ArialMT" font-size="10" text-anchor="start">attempts</text><text x="559.128" y="-585" fill="#999" font-family="Arial ItalicMT" font-size="10" text-anchor="start">integer</text><text x="518" y="-572" fill="#000" font-family="ArialMT" font-size="10" text-anchor="start">failed_at</text><text x="558.586" y="-572" fill="#999" font-family="Arial ItalicMT" font-size="10" text-anchor="start">datetime</text><text x="518" y="-559" fill="#000" font-family="ArialMT" font-size="10" text-anchor="start">handler</text><text x="554.138" y="-559" fill="#999" font-family="Arial ItalicMT" font-size="10" text-anchor="start">text</text><text x="518" y="-546" fill="#000" font-family="ArialMT" font-size="10" text-anchor="start">last_error</text><text x="563.015" y="-546" fill="#999" font-family="Arial ItalicMT" font-size="10" text-anchor="start">text</text><text x="518" y="-533" fill="#000" font-family="ArialMT" font-size="10" text-anchor="start">locked_at</text><text x="563.586" y="-533" fill="#999" font-family="Arial ItalicMT" font-size="10" text-anchor="start">datetime</text><text x="518" y="-520" fill="#000" font-family="ArialMT" font-size="10" text-anchor="start">locked_by</text><text x="565.808" y="-520" fill="#999" font-family="Arial ItalicMT" font-size="10" text-anchor="start">string</text><text x="518" y="-507" fill="#000" font-family="ArialMT" font-size="10" text-anchor="start">priority</text><text x="550.783" y="-507" fill="#999" font-family="Arial ItalicMT" font-size="10" text-anchor="start">integer</text><text x="518" y="-494" fill="#000" font-family="ArialMT" font-size="10" text-anchor="start">queue</text><text x="548.586" y="-494" fill="#999" font-family="Arial ItalicMT" font-size="10" text-anchor="start">string</text><text x="518" y="-481" fill="#000" font-family="ArialMT" font-size="10" text-anchor="start">run_at</text><text x="549.133" y="-481" fill="#999" font-family="Arial ItalicMT" font-size="10" text-anchor="start">datetime</text></g><g id="node3" class="node"><title>m_Deletion</title><path fill="none" stroke="#000" d="M276,-203.5C276,-203.5 540,-203.5 540,-203.5 546,-203.5 552,-209.5 552,-215.5 552,-215.5 552,-240.5 552,-240.5 552,-246.5 546,-252.5 540,-252.5 540,-252.5 276,-252.5 276,-252.5 270,-252.5 264,-246.5 264,-240.5 264,-240.5 264,-215.5 264,-215.5 264,-209.5 270,-203.5 276,-203.5"/><text x="313.821" y="-224.2" fill="#000" font-family="Arial BoldMT" font-size="11" text-anchor="start">Deletion</text><polyline fill="none" stroke="#000" points="408 -203.5 408 -252.5"/><text x="415" y="-239" fill="#000" font-family="ArialMT" font-size="10" text-anchor="start">number</text><text x="451.685" y="-239" fill="#999" font-family="Arial ItalicMT" font-size="10" text-anchor="start">string ∗</text><text x="415" y="-226" fill="#000" font-family="ArialMT" font-size="10" text-anchor="start">platform</text><text x="453.901" y="-226" fill="#999" font-family="Arial ItalicMT" font-size="10" text-anchor="start">string</text><text x="415" y="-213" fill="#000" font-family="ArialMT" font-size="10" text-anchor="start">rubygem</text><text x="456.685" y="-213" fill="#999" font-family="Arial ItalicMT" font-size="10" text-anchor="start">string ∗</text></g><g id="node4" class="node"><title>m_Dependency</title><path fill="none" stroke="#000" d="M1352,-.5C1352,-.5 1616,-.5 1616,-.5 1622,-.5 1628,-6.5 1628,-12.5 1628,-12.5 1628,-37.5 1628,-37.5 1628,-43.5 1622,-49.5 1616,-49.5 1616,-49.5 1352,-49.5 1352,-49.5 1346,-49.5 1340,-43.5 1340,-37.5 1340,-37.5 1340,-12.5 1340,-12.5 1340,-6.5 1346,-.5 1352,-.5"/><text x="1379.116" y="-21.2" fill="#000" font-family="Arial BoldMT" font-size="11" text-anchor="start">Dependency</text><polyline fill="none" stroke="#000" points="1484 -.5 1484 -49.5"/><text x="1491" y="-36" fill="#000" font-family="ArialMT" font-size="10" text-anchor="start">requirements</text><text x="1552.138" y="-36" fill="#999" font-family="Arial ItalicMT" font-size="10" text-anchor="start">string ∗</text><text x="1491" y="-23" fill="#000" font-family="ArialMT" font-size="10" text-anchor="start">scope</text><text x="1520.463" y="-23" fill="#999" font-family="Arial ItalicMT" font-size="10" text-anchor="start">string</text><text x="1491" y="-10" fill="#000" font-family="ArialMT" font-size="10" text-anchor="start">unresolved_name</text><text x="1573.275" y="-10" fill="#999" font-family="Arial ItalicMT" font-size="10" text-anchor="start">string</text></g><g id="node5" class="node"><title>m_GemDownload</title><path fill="none" stroke="#000" d="M1669,-7C1669,-7 1933,-7 1933,-7 1939,-7 1945,-13 1945,-19 1945,-19 1945,-31 1945,-31 1945,-37 1939,-43 1933,-43 1933,-43 1669,-43 1669,-43 1663,-43 1657,-37 1657,-31 1657,-31 1657,-19 1657,-19 1657,-13 1663,-7 1669,-7"/><text x="1690.622" y="-21.2" fill="#000" font-family="Arial BoldMT" font-size="11" text-anchor="start">GemDownload</text><polyline fill="none" stroke="#000" points="1801 -7 1801 -43"/><text x="1808" y="-23" fill="#000" font-family="ArialMT" font-size="10" text-anchor="start">count</text><text x="1835.241" y="-23" fill="#999" font-family="Arial ItalicMT" font-size="10" text-anchor="start">integer (8)</text></g><g id="node6" class="node"><title>m_Linkset</title><path fill="none" stroke="#000" d="M1857,-184C1857,-184 2121,-184 2121,-184 2127,-184 2133,-190 2133,-196 2133,-196 2133,-260 2133,-260 2133,-266 2127,-272 2121,-272 2121,-272 1857,-272 1857,-272 1851,-272 1845,-266 1845,-260 1845,-260 1845,-196 1845,-196 1845,-190 1851,-184 1857,-184"/><text x="1897.573" y="-224.2" fill="#000" font-family="Arial BoldMT" font-size="11" text-anchor="start">Linkset</text><polyline fill="none" stroke="#000" points="1989 -184 1989 -272"/><text x="1996" y="-259" fill="#000" font-family="ArialMT" font-size="10" text-anchor="start">bugs</text><text x="2020.463" y="-259" fill="#999" font-family="Arial ItalicMT" font-size="10" text-anchor="start">string</text><text x="1996" y="-246" fill="#000" font-family="ArialMT" font-size="10" text-anchor="start">code</text><text x="2020.463" y="-246" fill="#999" font-family="Arial ItalicMT" font-size="10" text-anchor="start">string</text><text x="1996" y="-233" fill="#000" font-family="ArialMT" font-size="10" text-anchor="start">docs</text><text x="2019.901" y="-233" fill="#999" font-family="Arial ItalicMT" font-size="10" text-anchor="start">string</text><text x="1996" y="-220" fill="#000" font-family="ArialMT" font-size="10" text-anchor="start">home</text><text x="2023.793" y="-220" fill="#999" font-family="Arial ItalicMT" font-size="10" text-anchor="start">string</text><text x="1996" y="-207" fill="#000" font-family="ArialMT" font-size="10" text-anchor="start">mail</text><text x="2017.113" y="-207" fill="#999" font-family="Arial ItalicMT" font-size="10" text-anchor="start">string</text><text x="1996" y="-194" fill="#000" font-family="ArialMT" font-size="10" text-anchor="start">wiki</text><text x="2015.443" y="-194" fill="#999" font-family="Arial ItalicMT" font-size="10" text-anchor="start">string</text></g><g id="node7" class="node"><title>m_LogTicket</title><path fill="none" stroke="#000" d="M1687,-497.5C1687,-497.5 1951,-497.5 1951,-497.5 1957,-497.5 1963,-503.5 1963,-509.5 1963,-509.5 1963,-560.5 1963,-560.5 1963,-566.5 1957,-572.5 1951,-572.5 1951,-572.5 1687,-572.5 1687,-572.5 1681,-572.5 1675,-566.5 1675,-560.5 1675,-560.5 1675,-509.5 1675,-509.5 1675,-503.5 1681,-497.5 1687,-497.5"/><text x="1721.356" y="-531.2" fill="#000" font-family="Arial BoldMT" font-size="11" text-anchor="start">LogTicket</text><polyline fill="none" stroke="#000" points="1819 -497.5 1819 -572.5"/><text x="1826" y="-559" fill="#000" font-family="ArialMT" font-size="10" text-anchor="start">backend</text><text x="1866.586" y="-559" fill="#999" font-family="Arial ItalicMT" font-size="10" text-anchor="start">integer</text><text x="1826" y="-546" fill="#000" font-family="ArialMT" font-size="10" text-anchor="start">directory</text><text x="1867.123" y="-546" fill="#999" font-family="Arial ItalicMT" font-size="10" text-anchor="start">string</text><text x="1826" y="-533" fill="#000" font-family="ArialMT" font-size="10" text-anchor="start">key</text><text x="1844.34" y="-533" fill="#999" font-family="Arial ItalicMT" font-size="10" text-anchor="start">string</text><text x="1826" y="-520" fill="#000" font-family="ArialMT" font-size="10" text-anchor="start">processed_count</text><text x="1904.94" y="-520" fill="#999" font-family="Arial ItalicMT" font-size="10" text-anchor="start">integer</text><text x="1826" y="-507" fill="#000" font-family="ArialMT" font-size="10" text-anchor="start">status</text><text x="1855.458" y="-507" fill="#999" font-family="Arial ItalicMT" font-size="10" text-anchor="start">string</text></g><g id="node8" class="node"><title>m_Ownership</title><path fill="none" stroke="#000" d="M593,-210C593,-210 857,-210 857,-210 863,-210 869,-216 869,-222 869,-222 869,-234 869,-234 869,-240 863,-246 857,-246 857,-246 593,-246 593,-246 587,-246 581,-240 581,-234 581,-234 581,-222 581,-222 581,-216 587,-210 593,-210"/><text x="624.711" y="-224.2" fill="#000" font-family="Arial BoldMT" font-size="11" text-anchor="start">Ownership</text><polyline fill="none" stroke="#000" points="725 -210 725 -246"/><text x="732" y="-226" fill="#000" font-family="ArialMT" font-size="10" text-anchor="start">token</text><text x="759.241" y="-226" fill="#999" font-family="Arial ItalicMT" font-size="10" text-anchor="start">string</text></g><g id="node9" class="node"><title>m_Rubygem</title><path fill="none" stroke="#000" d="M1370,-517C1370,-517 1634,-517 1634,-517 1640,-517 1646,-523 1646,-529 1646,-529 1646,-541 1646,-541 1646,-547 1640,-553 1634,-553 1634,-553 1370,-553 1370,-553 1364,-553 1358,-547 1358,-541 1358,-541 1358,-529 1358,-529 1358,-523 1364,-517 1370,-517"/><text x="1404.461" y="-531.2" fill="#000" font-family="Arial BoldMT" font-size="11" text-anchor="start">Rubygem</text><polyline fill="none" stroke="#000" points="1502 -517 1502 -553"/><text x="1509" y="-540" fill="#000" font-family="ArialMT" font-size="10" text-anchor="start">name</text><text x="1536.793" y="-540" fill="#999" font-family="Arial ItalicMT" font-size="10" text-anchor="start">string ∗ U</text><text x="1509" y="-527" fill="#000" font-family="ArialMT" font-size="10" text-anchor="start">slug</text><text x="1530.123" y="-527" fill="#999" font-family="Arial ItalicMT" font-size="10" text-anchor="start">string</text></g><g id="edge2" class="edge"><title>m_Rubygem-&gt;m_Dependency</title><path fill="none" stroke="#000" d="M1491.6296,-516.9609C1475.3029,-487.4078 1444.3016,-426.3192 1433,-370 1408.1659,-246.2449 1389.9352,-204.6485 1433,-86 1436.8266,-75.4572 1443.3615,-65.462 1450.5002,-56.7288"/><polygon fill="#000" stroke="#000" points="1453.075 -58.568 1456.592 -49.705 1448.316 -54.44 1453.075 -58.568"/></g><g id="edge4" class="edge"><title>m_Rubygem-&gt;m_GemDownload</title><path fill="none" stroke="#000" d="M1519.7892,-516.6284C1547.4279,-489.0366 1603.414,-436.8512 1660,-406 1705.5351,-381.1739 1738.7143,-410.5883 1771,-370 1850.3452,-270.2505 1818.8486,-99.1132 1805.6778,-43.2315"/></g><g id="edge6" class="edge"><title>m_Rubygem-&gt;m_Linkset</title><path fill="none" stroke="#000" d="M1518.5479,-516.8674C1545.3908,-488.6178 1601.3579,-434.402 1660,-406 1726.7711,-373.6609 1756.6042,-403.1028 1823,-370 1871.705,-345.7173 1917.9664,-304.0395 1949.22,-272.0982"/></g><g id="edge7" class="edge"><title>m_Rubygem-&gt;m_Ownership</title><path fill="none" stroke="#000" d="M1436.3541,-516.9804C1344.2976,-491.7803 1171.5676,-444.7489 1024,-406 961.4437,-389.5737 940.0347,-400.4984 883,-370 826.4583,-339.7653 773.8448,-285.1072 745.9005,-253.1419"/><polygon fill="#000" stroke="#000" points="748.258 -251.053 739.992 -246.299 743.49 -255.17 748.258 -251.053"/></g><g id="node10" class="node"><title>m_Subscription</title><path fill="none" stroke="#000" d="M910,-210C910,-210 1030,-210 1030,-210 1036,-210 1042,-216 1042,-222 1042,-222 1042,-234 1042,-234 1042,-240 1036,-246 1030,-246 1030,-246 910,-246 910,-246 904,-246 898,-240 898,-234 898,-234 898,-222 898,-222 898,-216 904,-210 910,-210"/><text x="937.734" y="-224.2" fill="#000" font-family="Arial BoldMT" font-size="11" text-anchor="start">Subscription</text></g><g id="edge10" class="edge"><title>m_Rubygem-&gt;m_Subscription</title><path fill="none" stroke="#000" d="M1397.8635,-516.9862C1300.5849,-495.7572 1155.7844,-452.4048 1056,-370 1018.3787,-338.9313 992.9066,-286.8568 979.9672,-255.1444"/><polygon fill="#000" stroke="#000" points="982.743 -253.598 976.502 -246.388 976.885 -255.916 982.743 -253.598"/></g><g id="node11" class="node"><title>m_User</title><path fill="none" stroke="#000" d="M696,-406.5C696,-406.5 998,-406.5 998,-406.5 1004,-406.5 1010,-412.5 1010,-418.5 1010,-418.5 1010,-651.5 1010,-651.5 1010,-657.5 1004,-663.5 998,-663.5 998,-663.5 696,-663.5 696,-663.5 690,-663.5 684,-657.5 684,-651.5 684,-651.5 684,-418.5 684,-418.5 684,-412.5 690,-406.5 696,-406.5"/><text x="742.388" y="-531.2" fill="#000" font-family="Arial BoldMT" font-size="11" text-anchor="start">User</text><polyline fill="none" stroke="#000" points="828 -406.5 828 -663.5"/><text x="835" y="-650" fill="#000" font-family="ArialMT" font-size="10" text-anchor="start">api_key</text><text x="872.246" y="-650" fill="#999" font-family="Arial ItalicMT" font-size="10" text-anchor="start">string</text><text x="835" y="-637" fill="#000" font-family="ArialMT" font-size="10" text-anchor="start">confirmation_token</text><text x="922.27" y="-637" fill="#999" font-family="Arial ItalicMT" font-size="10" text-anchor="start">string (128)</text><text x="835" y="-624" fill="#000" font-family="ArialMT" font-size="10" text-anchor="start">email</text><text x="861.675" y="-624" fill="#999" font-family="Arial ItalicMT" font-size="10" text-anchor="start">string ∗ U</text><text x="835" y="-611" fill="#000" font-family="ArialMT" font-size="10" text-anchor="start">email_confirmed</text><text x="911.143" y="-611" fill="#999" font-family="Arial ItalicMT" font-size="10" text-anchor="start">boolean ∗</text><text x="835" y="-598" fill="#000" font-family="ArialMT" font-size="10" text-anchor="start">email_reset</text><text x="889.468" y="-598" fill="#999" font-family="Arial ItalicMT" font-size="10" text-anchor="start">boolean</text><text x="835" y="-585" fill="#000" font-family="ArialMT" font-size="10" text-anchor="start">encrypted_password</text><text x="930.054" y="-585" fill="#999" font-family="Arial ItalicMT" font-size="10" text-anchor="start">string (128)</text><text x="835" y="-572" fill="#000" font-family="ArialMT" font-size="10" text-anchor="start">handle</text><text x="867.808" y="-572" fill="#999" font-family="Arial ItalicMT" font-size="10" text-anchor="start">string U</text><text x="835" y="-559" fill="#000" font-family="ArialMT" font-size="10" text-anchor="start">hide_email</text><text x="886.143" y="-559" fill="#999" font-family="Arial ItalicMT" font-size="10" text-anchor="start">boolean</text><text x="835" y="-546" fill="#000" font-family="ArialMT" font-size="10" text-anchor="start">last_otp_at</text><text x="886.704" y="-546" fill="#999" font-family="Arial ItalicMT" font-size="10" text-anchor="start">datetime</text><text x="835" y="-533" fill="#000" font-family="ArialMT" font-size="10" text-anchor="start">mfa_level</text><text x="880.576" y="-533" fill="#999" font-family="Arial ItalicMT" font-size="10" text-anchor="start">integer</text><text x="835" y="-520" fill="#000" font-family="ArialMT" font-size="10" text-anchor="start">mfa_recovery_codes</text><text x="930.601" y="-520" fill="#999" font-family="Arial ItalicMT" font-size="10" text-anchor="start">string</text><text x="835" y="-507" fill="#000" font-family="ArialMT" font-size="10" text-anchor="start">mfa_seed</text><text x="881.694" y="-507" fill="#999" font-family="Arial ItalicMT" font-size="10" text-anchor="start">string</text><text x="835" y="-494" fill="#000" font-family="ArialMT" font-size="10" text-anchor="start">remember_token</text><text x="913.369" y="-494" fill="#999" font-family="Arial ItalicMT" font-size="10" text-anchor="start">string (128)</text><text x="834.789" y="-481" fill="#000" font-family="ArialMT" font-size="10" text-anchor="start">remember_token_expires_at</text><text x="964.857" y="-481" fill="#999" font-family="Arial ItalicMT" font-size="10" text-anchor="start">datetime</text><text x="835" y="-468" fill="#000" font-family="ArialMT" font-size="10" text-anchor="start">salt</text><text x="853.34" y="-468" fill="#999" font-family="Arial ItalicMT" font-size="10" text-anchor="start">string (128)</text><text x="835" y="-455" fill="#000" font-family="ArialMT" font-size="10" text-anchor="start">token</text><text x="862.241" y="-455" fill="#999" font-family="Arial ItalicMT" font-size="10" text-anchor="start">string (128)</text><text x="835" y="-442" fill="#000" font-family="ArialMT" font-size="10" text-anchor="start">token_expires_at</text><text x="913.94" y="-442" fill="#999" font-family="Arial ItalicMT" font-size="10" text-anchor="start">datetime</text><text x="835" y="-429" fill="#000" font-family="ArialMT" font-size="10" text-anchor="start">twitter_username</text><text x="914.477" y="-429" fill="#999" font-family="Arial ItalicMT" font-size="10" text-anchor="start">string</text><text x="835" y="-416" fill="#000" font-family="ArialMT" font-size="10" text-anchor="start">unconfirmed_email</text><text x="922.266" y="-416" fill="#999" font-family="Arial ItalicMT" font-size="10" text-anchor="start">string</text></g><g id="node12" class="node"><title>m_Version</title><path fill="none" stroke="#000" d="M1459.5,-86.5C1459.5,-86.5 1744.5,-86.5 1744.5,-86.5 1750.5,-86.5 1756.5,-92.5 1756.5,-98.5 1756.5,-98.5 1756.5,-357.5 1756.5,-357.5 1756.5,-363.5 1750.5,-369.5 1744.5,-369.5 1744.5,-369.5 1459.5,-369.5 1459.5,-369.5 1453.5,-369.5 1447.5,-363.5 1447.5,-357.5 1447.5,-357.5 1447.5,-98.5 1447.5,-98.5 1447.5,-92.5 1453.5,-86.5 1459.5,-86.5"/><text x="1499.152" y="-224.2" fill="#000" font-family="Arial BoldMT" font-size="11" text-anchor="start">Version</text><polyline fill="none" stroke="#000" points="1591.5 -86.5 1591.5 -369.5"/><text x="1599" y="-356" fill="#000" font-family="ArialMT" font-size="10" text-anchor="start">authors</text><text x="1635.133" y="-356" fill="#999" font-family="Arial ItalicMT" font-size="10" text-anchor="start">text</text><text x="1599" y="-343" fill="#000" font-family="ArialMT" font-size="10" text-anchor="start">built_at</text><text x="1634.024" y="-343" fill="#999" font-family="Arial ItalicMT" font-size="10" text-anchor="start">datetime</text><text x="1599" y="-330" fill="#000" font-family="ArialMT" font-size="10" text-anchor="start">description</text><text x="1650.138" y="-330" fill="#999" font-family="Arial ItalicMT" font-size="10" text-anchor="start">text</text><text x="1599" y="-317" fill="#000" font-family="ArialMT" font-size="10" text-anchor="start">full_name</text><text x="1645.138" y="-317" fill="#999" font-family="Arial ItalicMT" font-size="10" text-anchor="start">string ∗ U</text><text x="1599" y="-304" fill="#000" font-family="ArialMT" font-size="10" text-anchor="start">indexed</text><text x="1636.808" y="-304" fill="#999" font-family="Arial ItalicMT" font-size="10" text-anchor="start">boolean</text><text x="1599" y="-291" fill="#000" font-family="ArialMT" font-size="10" text-anchor="start">info_checksum</text><text x="1668.477" y="-291" fill="#999" font-family="Arial ItalicMT" font-size="10" text-anchor="start">string</text><text x="1599" y="-278" fill="#000" font-family="ArialMT" font-size="10" text-anchor="start">latest</text><text x="1625.68" y="-278" fill="#999" font-family="Arial ItalicMT" font-size="10" text-anchor="start">boolean</text><text x="1599" y="-265" fill="#000" font-family="ArialMT" font-size="10" text-anchor="start">licenses</text><text x="1637.906" y="-265" fill="#999" font-family="Arial ItalicMT" font-size="10" text-anchor="start">string</text><text x="1599" y="-252" fill="#000" font-family="ArialMT" font-size="10" text-anchor="start">metadata</text><text x="1643.473" y="-252" fill="#999" font-family="Arial ItalicMT" font-size="10" text-anchor="start">hstore ∗</text><text x="1599" y="-239" fill="#000" font-family="ArialMT" font-size="10" text-anchor="start">number</text><text x="1635.685" y="-239" fill="#999" font-family="Arial ItalicMT" font-size="10" text-anchor="start">string</text><text x="1599" y="-226" fill="#000" font-family="ArialMT" font-size="10" text-anchor="start">platform</text><text x="1637.901" y="-226" fill="#999" font-family="Arial ItalicMT" font-size="10" text-anchor="start">string</text><text x="1599" y="-213" fill="#000" font-family="ArialMT" font-size="10" text-anchor="start">position</text><text x="1636.246" y="-213" fill="#999" font-family="Arial ItalicMT" font-size="10" text-anchor="start">integer</text><text x="1599" y="-200" fill="#000" font-family="ArialMT" font-size="10" text-anchor="start">prerelease</text><text x="1649.029" y="-200" fill="#999" font-family="Arial ItalicMT" font-size="10" text-anchor="start">boolean</text><text x="1599" y="-187" fill="#000" font-family="ArialMT" font-size="10" text-anchor="start">required_ruby_version</text><text x="1701.28" y="-187" fill="#999" font-family="Arial ItalicMT" font-size="10" text-anchor="start">string</text><text x="1598.907" y="-174" fill="#000" font-family="ArialMT" font-size="10" text-anchor="start">required_rubygems_version</text><text x="1725.64" y="-174" fill="#999" font-family="Arial ItalicMT" font-size="10" text-anchor="start">string</text><text x="1599" y="-161" fill="#000" font-family="ArialMT" font-size="10" text-anchor="start">requirements</text><text x="1660.138" y="-161" fill="#999" font-family="Arial ItalicMT" font-size="10" text-anchor="start">text</text><text x="1599" y="-148" fill="#000" font-family="ArialMT" font-size="10" text-anchor="start">sha256</text><text x="1634.586" y="-148" fill="#999" font-family="Arial ItalicMT" font-size="10" text-anchor="start">string</text><text x="1599" y="-135" fill="#000" font-family="ArialMT" font-size="10" text-anchor="start">size</text><text x="1619.562" y="-135" fill="#999" font-family="Arial ItalicMT" font-size="10" text-anchor="start">integer</text><text x="1599" y="-122" fill="#000" font-family="ArialMT" font-size="10" text-anchor="start">summary</text><text x="1642.892" y="-122" fill="#999" font-family="Arial ItalicMT" font-size="10" text-anchor="start">text</text><text x="1599" y="-109" fill="#000" font-family="ArialMT" font-size="10" text-anchor="start">yanked_at</text><text x="1647.926" y="-109" fill="#999" font-family="Arial ItalicMT" font-size="10" text-anchor="start">datetime</text><text x="1599" y="-96" fill="#000" font-family="ArialMT" font-size="10" text-anchor="start">yanked_info_checksum</text><text x="1706.285" y="-96" fill="#999" font-family="Arial ItalicMT" font-size="10" text-anchor="start">string</text></g><g id="edge12" class="edge"><title>m_Rubygem-&gt;m_Version</title><path fill="none" stroke="#000" d="M1507.956,-516.7151C1517.016,-488.9009 1535.1065,-433.3631 1553.0219,-378.3626"/><polygon fill="#000" stroke="#000" points="1556.102 -379.077 1555.894 -369.544 1550.112 -377.126 1556.102 -379.077"/></g><g id="node13" class="node"><title>m_WebHook</title><path fill="none" stroke="#000" d="M1083,-210C1083,-210 1347,-210 1347,-210 1353,-210 1359,-216 1359,-222 1359,-222 1359,-234 1359,-234 1359,-240 1353,-246 1347,-246 1347,-246 1083,-246 1083,-246 1077,-246 1071,-240 1071,-234 1071,-234 1071,-222 1071,-222 1071,-216 1077,-210 1083,-210"/><text x="1116.948" y="-224.2" fill="#000" font-family="Arial BoldMT" font-size="11" text-anchor="start">WebHook</text><polyline fill="none" stroke="#000" points="1215 -210 1215 -246"/><text x="1222" y="-233" fill="#000" font-family="ArialMT" font-size="10" text-anchor="start">failure_count</text><text x="1282.039" y="-233" fill="#999" font-family="Arial ItalicMT" font-size="10" text-anchor="start">integer</text><text x="1222" y="-220" fill="#000" font-family="ArialMT" font-size="10" text-anchor="start">url</text><text x="1235.892" y="-220" fill="#999" font-family="Arial ItalicMT" font-size="10" text-anchor="start">string</text></g><g id="edge13" class="edge"><title>m_Rubygem-&gt;m_WebHook</title><path fill="none" stroke="#000" d="M1484.9063,-516.7151C1435.8546,-464.2452 1294.5716,-313.1166 1238.4181,-253.0501"/><polygon fill="#000" stroke="#000" points="1240.451 -250.612 1232.004 -246.189 1235.849 -254.915 1240.451 -250.612"/></g><g id="edge1" class="edge"><title>m_User-&gt;m_Deletion</title><path fill="none" stroke="#000" d="M683.9961,-414.1835C678.9936,-411.3435 673.9888,-408.6079 669,-406 626.0244,-383.5344 607.7376,-394.6896 566,-370 514.7985,-339.7121 465.3929,-291.2175 435.8471,-259.484"/><polygon fill="#000" stroke="#000" points="437.907 -257.071 429.492 -252.587 433.274 -261.34 437.907 -257.071"/></g><g id="edge8" class="edge"><title>m_User-&gt;m_Ownership</title><path fill="none" stroke="#000" d="M795.7913,-406.1387C773.3441,-349.6529 749.0806,-288.5963 735.5902,-254.6492"/><polygon fill="#000" stroke="#000" points="738.492 -253.421 732.241 -246.22 732.637 -255.748 738.492 -253.421"/></g><g id="edge14" class="edge"><title>m_User-&gt;m_Subscription</title><path fill="none" stroke="#000" d="M898.6284,-406.1387C921.2596,-349.6529 945.722,-288.5963 959.323,-254.6492"/><polygon fill="#000" stroke="#000" points="962.277 -255.746 962.7 -246.22 956.429 -253.403 962.277 -255.746"/></g><g id="edge15" class="edge"><title>m_User-&gt;m_WebHook</title><path fill="none" stroke="#000" d="M1010.082,-407.8188C1025.7037,-395.167 1041.221,-382.4138 1056,-370 1103.6877,-329.9444 1157.3821,-281.1938 1188.5823,-252.4857"/><polygon fill="#000" stroke="#000" points="1190.78 -254.744 1195.263 -246.328 1186.51 -250.112 1190.78 -254.744"/></g><g id="edge3" class="edge"><title>m_Version-&gt;m_Dependency</title><path fill="none" stroke="#000" d="M1519.7241,-86.4576C1513.6312,-75.9756 1507.9326,-66.1722 1502.9544,-57.608"/><polygon fill="#000" stroke="#000" points="1505.659 -55.993 1498.413 -49.795 1500.213 -59.159 1505.659 -55.993"/></g><g id="edge5" class="edge"><title>m_Version-&gt;m_GemDownload</title><path fill="none" stroke="#000" d="M1740.7534,-86.4576C1757.4721,-69.4028 1772.43,-54.1443 1783.2594,-43.0972"/></g></g></svg>